<svg xmlns="http://www.w3.org/2000/svg" xmlns:xlink="http://www.w3.org/1999/xlink" t="1701337791639" class="icon" viewBox="0 0 1024 1024" version="1.1" p-id="7424" id="mx_n_1701337791640" width="200" height="200"><path d="M64 128C64 57.4 121.4 0 192 0h320c70.6 0 128 57.4 128 128v384h16c97.2 0 176 78.8 176 176v64c0 26.6 21.4 48 48 48s48-21.4 48-48V444c-55.2-14.2-96-64.4-96-124V192l-64-64c-17.6-17.6-17.6-46.4 0-64s46.4-17.6 64 0l154.6 154.6c24 24 37.4 56.6 37.4 90.6V752c0 79.6-64.4 144-144 144s-144-64.4-144-144v-64c0-44.2-35.8-80-80-80h-16v288c35.4 0 64 28.6 64 64s-28.6 64-64 64H64c-35.4 0-64-28.6-64-64s28.6-64 64-64V128z m128 32v192c0 17.6 14.4 32 32 32h256c17.6 0 32-14.4 32-32V160c0-17.6-14.4-32-32-32H224c-17.6 0-32 14.4-32 32z" p-id="7425" fill="#8a8a8a"/></svg>